<svg width="32" height="32" viewBox="0 0 32 32" fill="none" xmlns="http://www.w3.org/2000/svg">
<path d="M15.5877 32H0V25.4062L4.57143 16.4L0 6.59375V0H15.5714C18.9589 0 21.8755 0.640625 24.3214 1.92188C26.7781 3.19271 28.6721 5.02604 30.0032 7.42188C31.3344 9.80729 32 12.6615 32 15.9844C32 19.3177 31.3344 22.1823 30.0032 24.5781C28.6829 26.974 26.7944 28.8125 24.3377 30.0938C21.881 31.3646 18.9643 32 15.5877 32ZM8.02273 25.4062H15.2792C17.1407 25.4062 18.7154 25.1042 20.0032 24.5C21.3019 23.8854 22.2814 22.8906 22.9416 21.5156C23.6126 20.1302 23.9481 18.2865 23.9481 15.9844C23.9481 13.6823 23.6126 11.849 22.9416 10.4844C22.2706 9.10938 21.2803 8.11979 19.9708 7.51563C18.6721 6.90104 17.0703 6.59375 15.1656 6.59375H8.02273L12.0519 16.4L8.02273 25.4062Z" fill="#111111"/>
</svg>
