<svg width="113" height="32" viewBox="0 0 113 32" fill="none" xmlns="http://www.w3.org/2000/svg">
<path d="M15.5877 32H0V25.4062L4.57143 16.4L0 6.59375V0H15.5714C18.9589 0 21.8755 0.640625 24.3214 1.92188C26.7781 3.19271 28.6721 5.02604 30.0032 7.42188C31.3344 9.80729 32 12.6615 32 15.9844C32 19.3177 31.3344 22.1823 30.0032 24.5781C28.6829 26.974 26.7944 28.8125 24.3377 30.0938C21.881 31.3646 18.9643 32 15.5877 32ZM8.02273 25.4062H15.2792C17.1407 25.4062 18.7154 25.1042 20.0032 24.5C21.3019 23.8854 22.2814 22.8906 22.9416 21.5156C23.6126 20.1302 23.9481 18.2865 23.9481 15.9844C23.9481 13.6823 23.6126 11.849 22.9416 10.4844C22.2706 9.10938 21.2803 8.11979 19.9708 7.51563C18.6721 6.90104 17.0703 6.59375 15.1656 6.59375H8.02273L12.0519 16.4L8.02273 25.4062Z" fill="#111111"/>
<path d="M42.55 5.172C43.586 5.172 44.4913 5.37733 45.266 5.788C46.0407 6.19867 46.638 6.77733 47.058 7.524C47.4873 8.26133 47.702 9.11533 47.702 10.086C47.702 11.0473 47.4873 11.9013 47.058 12.648C46.638 13.3947 46.036 13.9733 45.252 14.384C44.4773 14.7947 43.5767 15 42.55 15H38.868V5.172H42.55ZM42.396 12.928C43.3013 12.928 44.006 12.6807 44.51 12.186C45.014 11.6913 45.266 10.9913 45.266 10.086C45.266 9.18067 45.014 8.476 44.51 7.972C44.006 7.468 43.3013 7.216 42.396 7.216H41.262V12.928H42.396ZM56.0399 16.68L54.7799 14.986C54.4065 15.0607 54.0425 15.098 53.6879 15.098C52.7639 15.098 51.9145 14.8833 51.1399 14.454C50.3745 14.0247 49.7632 13.4273 49.3059 12.662C48.8579 11.8873 48.6339 11.0193 48.6339 10.058C48.6339 9.09667 48.8579 8.23333 49.3059 7.468C49.7632 6.70267 50.3745 6.10533 51.1399 5.676C51.9145 5.24667 52.7639 5.032 53.6879 5.032C54.6119 5.032 55.4565 5.24667 56.2219 5.676C56.9965 6.10533 57.6032 6.70267 58.0419 7.468C58.4899 8.23333 58.7139 9.09667 58.7139 10.058C58.7139 10.898 58.5412 11.668 58.1959 12.368C57.8599 13.0587 57.3885 13.6327 56.7819 14.09L58.9379 16.68H56.0399ZM51.0839 10.058C51.0839 10.926 51.3172 11.6213 51.7839 12.144C52.2599 12.6573 52.8945 12.914 53.6879 12.914C54.4719 12.914 55.0972 12.6527 55.5639 12.13C56.0399 11.6073 56.2779 10.9167 56.2779 10.058C56.2779 9.19 56.0399 8.49933 55.5639 7.986C55.0972 7.46333 54.4719 7.202 53.6879 7.202C52.8945 7.202 52.2599 7.45867 51.7839 7.972C51.3172 8.48533 51.0839 9.18067 51.0839 10.058ZM62.4251 5.172V11.052C62.4251 11.64 62.5697 12.0927 62.8591 12.41C63.1484 12.7273 63.5731 12.886 64.1331 12.886C64.6931 12.886 65.1224 12.7273 65.4211 12.41C65.7197 12.0927 65.8691 11.64 65.8691 11.052V5.172H68.2631V11.038C68.2631 11.9153 68.0764 12.6573 67.7031 13.264C67.3297 13.8707 66.8257 14.328 66.1911 14.636C65.5657 14.944 64.8657 15.098 64.0911 15.098C63.3164 15.098 62.6211 14.9487 62.0051 14.65C61.3984 14.342 60.9177 13.8847 60.5631 13.278C60.2084 12.662 60.0311 11.9153 60.0311 11.038V5.172H62.4251ZM76.0622 13.264H72.3942L71.8062 15H69.3002L72.8562 5.172H75.6282L79.1842 15H76.6502L76.0622 13.264ZM75.4462 11.416L74.2282 7.818L73.0242 11.416H75.4462ZM87.3364 5.172V7.09H84.7324V15H82.3384V7.09H79.7344V5.172H87.3364ZM97.0499 5.172V15H94.6559V10.954H90.9319V15H88.5379V5.172H90.9319V9.022H94.6559V5.172H97.0499ZM43.24 21.05V21.98H41.39V28H40.25V21.98H38.39V21.05H43.24ZM45.5345 21.97V24.01H47.9345V24.94H45.5345V27.07H48.2345V28H44.3945V21.04H48.2345V21.97H45.5345ZM49.2587 24.51C49.2587 23.83 49.4153 23.22 49.7287 22.68C50.0487 22.14 50.4787 21.72 51.0187 21.42C51.5653 21.1133 52.162 20.96 52.8087 20.96C53.5487 20.96 54.2053 21.1433 54.7787 21.51C55.3587 21.87 55.7787 22.3833 56.0387 23.05H54.6687C54.4887 22.6833 54.2387 22.41 53.9187 22.23C53.5987 22.05 53.2287 21.96 52.8087 21.96C52.3487 21.96 51.9387 22.0633 51.5787 22.27C51.2187 22.4767 50.9353 22.7733 50.7287 23.16C50.5287 23.5467 50.4287 23.9967 50.4287 24.51C50.4287 25.0233 50.5287 25.4733 50.7287 25.86C50.9353 26.2467 51.2187 26.5467 51.5787 26.76C51.9387 26.9667 52.3487 27.07 52.8087 27.07C53.2287 27.07 53.5987 26.98 53.9187 26.8C54.2387 26.62 54.4887 26.3467 54.6687 25.98H56.0387C55.7787 26.6467 55.3587 27.16 54.7787 27.52C54.2053 27.88 53.5487 28.06 52.8087 28.06C52.1553 28.06 51.5587 27.91 51.0187 27.61C50.4787 27.3033 50.0487 26.88 49.7287 26.34C49.4153 25.8 49.2587 25.19 49.2587 24.51ZM62.923 21.05V28H61.783V24.96H58.513V28H57.373V21.05H58.513V24.03H61.783V21.05H62.923ZM70.1338 28H68.9938L65.5638 22.81V28H64.4238V21.04H65.5638L68.9938 26.22V21.04H70.1338V28ZM74.8009 28.07C74.1542 28.07 73.5575 27.92 73.0109 27.62C72.4709 27.3133 72.0409 26.89 71.7209 26.35C71.4075 25.8033 71.2509 25.19 71.2509 24.51C71.2509 23.83 71.4075 23.22 71.7209 22.68C72.0409 22.14 72.4709 21.72 73.0109 21.42C73.5575 21.1133 74.1542 20.96 74.8009 20.96C75.4542 20.96 76.0509 21.1133 76.5909 21.42C77.1375 21.72 77.5675 22.14 77.8809 22.68C78.1942 23.22 78.3509 23.83 78.3509 24.51C78.3509 25.19 78.1942 25.8033 77.8809 26.35C77.5675 26.89 77.1375 27.3133 76.5909 27.62C76.0509 27.92 75.4542 28.07 74.8009 28.07ZM74.8009 27.08C75.2609 27.08 75.6709 26.9767 76.0309 26.77C76.3909 26.5567 76.6709 26.2567 76.8709 25.87C77.0775 25.4767 77.1809 25.0233 77.1809 24.51C77.1809 23.9967 77.0775 23.5467 76.8709 23.16C76.6709 22.7733 76.3909 22.4767 76.0309 22.27C75.6709 22.0633 75.2609 21.96 74.8009 21.96C74.3409 21.96 73.9309 22.0633 73.5709 22.27C73.2109 22.4767 72.9275 22.7733 72.7209 23.16C72.5209 23.5467 72.4209 23.9967 72.4209 24.51C72.4209 25.0233 72.5209 25.4767 72.7209 25.87C72.9275 26.2567 73.2109 26.5567 73.5709 26.77C73.9309 26.9767 74.3409 27.08 74.8009 27.08ZM80.6127 27.08H82.9627V28H79.4727V21.05H80.6127V27.08ZM87.086 28.07C86.4393 28.07 85.8427 27.92 85.296 27.62C84.756 27.3133 84.326 26.89 84.006 26.35C83.6927 25.8033 83.536 25.19 83.536 24.51C83.536 23.83 83.6927 23.22 84.006 22.68C84.326 22.14 84.756 21.72 85.296 21.42C85.8427 21.1133 86.4393 20.96 87.086 20.96C87.7393 20.96 88.336 21.1133 88.876 21.42C89.4227 21.72 89.8527 22.14 90.166 22.68C90.4793 23.22 90.636 23.83 90.636 24.51C90.636 25.19 90.4793 25.8033 90.166 26.35C89.8527 26.89 89.4227 27.3133 88.876 27.62C88.336 27.92 87.7393 28.07 87.086 28.07ZM87.086 27.08C87.546 27.08 87.956 26.9767 88.316 26.77C88.676 26.5567 88.956 26.2567 89.156 25.87C89.3627 25.4767 89.466 25.0233 89.466 24.51C89.466 23.9967 89.3627 23.5467 89.156 23.16C88.956 22.7733 88.676 22.4767 88.316 22.27C87.956 22.0633 87.546 21.96 87.086 21.96C86.626 21.96 86.216 22.0633 85.856 22.27C85.496 22.4767 85.2127 22.7733 85.006 23.16C84.806 23.5467 84.706 23.9967 84.706 24.51C84.706 25.0233 84.806 25.4767 85.006 25.87C85.2127 26.2567 85.496 26.5567 85.856 26.77C86.216 26.9767 86.626 27.08 87.086 27.08ZM96.7878 23.05C96.6078 22.7033 96.3578 22.4433 96.0378 22.27C95.7178 22.09 95.3478 22 94.9278 22C94.4678 22 94.0578 22.1033 93.6978 22.31C93.3378 22.5167 93.0545 22.81 92.8478 23.19C92.6478 23.57 92.5478 24.01 92.5478 24.51C92.5478 25.01 92.6478 25.4533 92.8478 25.84C93.0545 26.22 93.3378 26.5133 93.6978 26.72C94.0578 26.9267 94.4678 27.03 94.9278 27.03C95.5478 27.03 96.0511 26.8567 96.4378 26.51C96.8245 26.1633 97.0611 25.6933 97.1478 25.1H94.5378V24.19H98.3678V25.08C98.2945 25.62 98.1011 26.1167 97.7878 26.57C97.4811 27.0233 97.0778 27.3867 96.5778 27.66C96.0845 27.9267 95.5345 28.06 94.9278 28.06C94.2745 28.06 93.6778 27.91 93.1378 27.61C92.5978 27.3033 92.1678 26.88 91.8478 26.34C91.5345 25.8 91.3778 25.19 91.3778 24.51C91.3778 23.83 91.5345 23.22 91.8478 22.68C92.1678 22.14 92.5978 21.72 93.1378 21.42C93.6845 21.1133 94.2811 20.96 94.9278 20.96C95.6678 20.96 96.3245 21.1433 96.8978 21.51C97.4778 21.87 97.8978 22.3833 98.1578 23.05H96.7878ZM100.632 21.05V28H99.4922V21.05H100.632ZM103.269 21.97V24.01H105.669V24.94H103.269V27.07H105.969V28H102.129V21.04H105.969V21.97H103.269ZM109.663 28.07C109.196 28.07 108.776 27.99 108.403 27.83C108.03 27.6633 107.736 27.43 107.523 27.13C107.31 26.83 107.203 26.48 107.203 26.08H108.423C108.45 26.38 108.566 26.6267 108.773 26.82C108.986 27.0133 109.283 27.11 109.663 27.11C110.056 27.11 110.363 27.0167 110.583 26.83C110.803 26.6367 110.913 26.39 110.913 26.09C110.913 25.8567 110.843 25.6667 110.703 25.52C110.57 25.3733 110.4 25.26 110.193 25.18C109.993 25.1 109.713 25.0133 109.353 24.92C108.9 24.8 108.53 24.68 108.243 24.56C107.963 24.4333 107.723 24.24 107.523 23.98C107.323 23.72 107.223 23.3733 107.223 22.94C107.223 22.54 107.323 22.19 107.523 21.89C107.723 21.59 108.003 21.36 108.363 21.2C108.723 21.04 109.14 20.96 109.613 20.96C110.286 20.96 110.836 21.13 111.263 21.47C111.696 21.8033 111.936 22.2633 111.983 22.85H110.723C110.703 22.5967 110.583 22.38 110.363 22.2C110.143 22.02 109.853 21.93 109.493 21.93C109.166 21.93 108.9 22.0133 108.693 22.18C108.486 22.3467 108.383 22.5867 108.383 22.9C108.383 23.1133 108.446 23.29 108.573 23.43C108.706 23.5633 108.873 23.67 109.073 23.75C109.273 23.83 109.546 23.9167 109.893 24.01C110.353 24.1367 110.726 24.2633 111.013 24.39C111.306 24.5167 111.553 24.7133 111.753 24.98C111.96 25.24 112.063 25.59 112.063 26.03C112.063 26.3833 111.966 26.7167 111.773 27.03C111.586 27.3433 111.31 27.5967 110.943 27.79C110.583 27.9767 110.156 28.07 109.663 28.07Z" fill="black"/>
</svg>
