<svg width="18" height="15" viewBox="0 0 18 15" fill="none" xmlns="http://www.w3.org/2000/svg">
<path d="M6.46715 13.5942L6.46717 13.5942C6.62335 13.7504 6.8766 13.7505 7.03284 13.5943L7.03286 13.5942M6.46715 13.5942L7.3864 13.9478L7.03286 13.5942M6.46715 13.5942L0.617146 7.74421C0.460965 7.58803 0.460936 7.33476 0.617151 7.17852C0.617156 7.17851 0.61716 7.17851 0.617164 7.17851L1.88991 5.90572L1.88993 5.90571C2.04612 5.7495 2.29939 5.7495 2.45558 5.90571L2.4556 5.90573L6.39645 9.84653L6.75 10.2001L7.10355 9.84653L15.5444 1.40572L15.1908 1.05217L15.5444 1.40572C15.7006 1.24953 15.9539 1.24953 16.1101 1.40572L17.3828 2.67851L17.7364 2.32497L17.3829 2.67852C17.539 2.8347 17.5391 3.08796 17.3829 3.24421L6.46715 13.5942ZM7.03286 13.5942L17.3828 3.24423L7.03286 13.5942Z" fill="#BFE0FF" stroke="#309BFF"/>
</svg>
